<mxfile host="app.diagrams.net" modified="2023-09-18T12:09:17.381Z" agent="5.0 (Windows NT 10.0; Win64; x64) AppleWebKit/537.36 (KHTML, like Gecko) Chrome/116.0.0.0 Safari/537.36 Edg/116.0.1938.81" etag="1bIL1_OXHLwt4hFNoUjg" version="20.3.0" type="github">
  <diagram id="HhmmLsA7KFrWvXzvZ1EJ" name="第 1 页">
    <mxGraphModel dx="471" dy="832" grid="1" gridSize="10" guides="1" tooltips="1" connect="1" arrows="1" fold="1" page="1" pageScale="1" pageWidth="827" pageHeight="1169" math="0" shadow="0">
      <root>
        <mxCell id="0" />
        <mxCell id="1" parent="0" />
        <mxCell id="eJckKtrgFFKCEIiOAs-9-3" value="" style="edgeStyle=orthogonalEdgeStyle;rounded=0;orthogonalLoop=1;jettySize=auto;html=1;" edge="1" parent="1" source="eJckKtrgFFKCEIiOAs-9-1" target="eJckKtrgFFKCEIiOAs-9-2">
          <mxGeometry relative="1" as="geometry" />
        </mxCell>
        <mxCell id="eJckKtrgFFKCEIiOAs-9-1" value="&lt;i&gt;Chapter 1&lt;/i&gt;&lt;br&gt;Introduction" style="rounded=0;whiteSpace=wrap;html=1;" vertex="1" parent="1">
          <mxGeometry x="120" y="260" width="120" height="60" as="geometry" />
        </mxCell>
        <mxCell id="eJckKtrgFFKCEIiOAs-9-5" value="" style="edgeStyle=orthogonalEdgeStyle;rounded=0;orthogonalLoop=1;jettySize=auto;html=1;" edge="1" parent="1" source="eJckKtrgFFKCEIiOAs-9-2" target="eJckKtrgFFKCEIiOAs-9-4">
          <mxGeometry relative="1" as="geometry" />
        </mxCell>
        <mxCell id="eJckKtrgFFKCEIiOAs-9-2" value="&lt;i&gt;Chapter 2&lt;/i&gt;&lt;br&gt;Background &amp;amp;&amp;amp; Literature Review" style="rounded=0;whiteSpace=wrap;html=1;" vertex="1" parent="1">
          <mxGeometry x="280" y="260" width="120" height="60" as="geometry" />
        </mxCell>
        <mxCell id="eJckKtrgFFKCEIiOAs-9-7" style="edgeStyle=orthogonalEdgeStyle;rounded=0;orthogonalLoop=1;jettySize=auto;html=1;" edge="1" parent="1" source="eJckKtrgFFKCEIiOAs-9-4" target="eJckKtrgFFKCEIiOAs-9-6">
          <mxGeometry relative="1" as="geometry">
            <Array as="points">
              <mxPoint x="500" y="330" />
              <mxPoint x="180" y="330" />
            </Array>
          </mxGeometry>
        </mxCell>
        <mxCell id="eJckKtrgFFKCEIiOAs-9-4" value="&lt;i&gt;Chapter 3&lt;/i&gt;&lt;br&gt;Requirement Analysis" style="rounded=0;whiteSpace=wrap;html=1;" vertex="1" parent="1">
          <mxGeometry x="440" y="260" width="120" height="60" as="geometry" />
        </mxCell>
        <mxCell id="eJckKtrgFFKCEIiOAs-9-9" value="" style="edgeStyle=orthogonalEdgeStyle;rounded=0;orthogonalLoop=1;jettySize=auto;html=1;" edge="1" parent="1" source="eJckKtrgFFKCEIiOAs-9-6" target="eJckKtrgFFKCEIiOAs-9-8">
          <mxGeometry relative="1" as="geometry" />
        </mxCell>
        <mxCell id="eJckKtrgFFKCEIiOAs-9-6" value="&lt;i&gt;Chapter 3&lt;/i&gt;&lt;br&gt;System Design and Development" style="rounded=0;whiteSpace=wrap;html=1;" vertex="1" parent="1">
          <mxGeometry x="120" y="350" width="120" height="60" as="geometry" />
        </mxCell>
        <mxCell id="eJckKtrgFFKCEIiOAs-9-11" value="" style="edgeStyle=orthogonalEdgeStyle;rounded=0;orthogonalLoop=1;jettySize=auto;html=1;" edge="1" parent="1" source="eJckKtrgFFKCEIiOAs-9-8" target="eJckKtrgFFKCEIiOAs-9-10">
          <mxGeometry relative="1" as="geometry" />
        </mxCell>
        <mxCell id="eJckKtrgFFKCEIiOAs-9-8" value="&lt;i&gt;Chapter 4&lt;/i&gt;&lt;br&gt;Results" style="rounded=0;whiteSpace=wrap;html=1;" vertex="1" parent="1">
          <mxGeometry x="280" y="350" width="120" height="60" as="geometry" />
        </mxCell>
        <mxCell id="eJckKtrgFFKCEIiOAs-9-14" style="edgeStyle=orthogonalEdgeStyle;rounded=0;orthogonalLoop=1;jettySize=auto;html=1;" edge="1" parent="1" source="eJckKtrgFFKCEIiOAs-9-10" target="eJckKtrgFFKCEIiOAs-9-12">
          <mxGeometry relative="1" as="geometry">
            <Array as="points">
              <mxPoint x="500" y="420" />
              <mxPoint x="180" y="420" />
            </Array>
          </mxGeometry>
        </mxCell>
        <mxCell id="eJckKtrgFFKCEIiOAs-9-10" value="&lt;i&gt;Chapter 5&lt;/i&gt;&lt;br&gt;Discussion" style="rounded=0;whiteSpace=wrap;html=1;" vertex="1" parent="1">
          <mxGeometry x="440" y="350" width="120" height="60" as="geometry" />
        </mxCell>
        <mxCell id="eJckKtrgFFKCEIiOAs-9-15" value="" style="edgeStyle=orthogonalEdgeStyle;rounded=0;orthogonalLoop=1;jettySize=auto;html=1;" edge="1" parent="1" source="eJckKtrgFFKCEIiOAs-9-12" target="eJckKtrgFFKCEIiOAs-9-13">
          <mxGeometry relative="1" as="geometry" />
        </mxCell>
        <mxCell id="eJckKtrgFFKCEIiOAs-9-12" value="&lt;i&gt;Chapter 6&lt;/i&gt;&lt;br&gt;Conclusion" style="rounded=0;whiteSpace=wrap;html=1;" vertex="1" parent="1">
          <mxGeometry x="120" y="440" width="120" height="60" as="geometry" />
        </mxCell>
        <mxCell id="eJckKtrgFFKCEIiOAs-9-13" value="&lt;i&gt;Chapter 7&lt;/i&gt;&lt;br&gt;Project Management" style="rounded=0;whiteSpace=wrap;html=1;" vertex="1" parent="1">
          <mxGeometry x="280" y="440" width="120" height="60" as="geometry" />
        </mxCell>
      </root>
    </mxGraphModel>
  </diagram>
</mxfile>
